<?xml version="1.0" standalone="no"?>
<svg version="1.0" xmlns="http://www.w3.org/2000/svg"
 width="256.000000pt" height="256.000000pt" viewBox="0 0 256.000000 256.000000"
 preserveAspectRatio="xMidYMid meet">

<g transform="translate(0.000000,256.000000) scale(0.100000,-0.100000)"
fill="#000000" stroke="none">
<path d="M1982 2400 c0 -19 2 -27 5 -17 2 9 2 25 0 35 -3 9 -5 1 -5 -18z"/>
<path d="M1780 2374 c0 -6 7 -19 16 -30 14 -18 14 -18 3 6 -14 31 -19 36 -19
24z"/>
<path d="M1810 2316 c0 -2 8 -10 18 -17 15 -13 16 -12 3 4 -13 16 -21 21 -21
13z"/>
<path d="M1900 2175 c-1 -5 -3 -23 -5 -38 -3 -23 -1 -27 12 -23 14 6 14 4 2
-11 -7 -10 -1 -7 15 7 l28 25 -7 -24 c-6 -21 -5 -23 14 -18 12 3 19 2 16 -3
-3 -4 11 -11 31 -14 19 -4 38 -14 41 -22 4 -11 8 -12 13 -4 5 9 10 9 14 1 8
-12 -37 -26 -52 -17 -6 3 -17 -6 -27 -20 -16 -24 -16 -26 2 -40 10 -7 14 -14
8 -14 -5 -1 -18 -3 -27 -5 -10 -2 -20 1 -24 6 -10 16 -37 10 -30 -7 3 -9 3
-21 -1 -27 -4 -6 -8 -23 -9 -37 l-3 -25 14 25 c8 14 15 34 15 45 1 18 1 19 11
3 5 -10 15 -18 20 -18 6 0 7 6 3 13 -5 8 -3 8 9 -2 9 -7 14 -17 12 -22 -3 -4
10 -25 28 -46 19 -21 43 -55 54 -75 11 -21 24 -34 28 -30 5 4 5 1 0 -7 -6 -11
-13 -8 -32 15 -12 16 -23 34 -23 39 0 6 -13 19 -28 29 -15 11 -24 16 -20 11 4
-4 3 -14 -3 -21 -18 -22 40 -115 93 -149 15 -9 35 -35 45 -56 17 -39 17 -39
30 -17 10 19 12 20 13 6 0 -10 5 -18 11 -18 6 0 8 8 4 19 -5 16 -2 18 15 14
15 -4 20 -1 20 16 0 11 5 21 10 21 6 0 10 8 10 18 0 10 3 22 7 26 14 13 22
274 11 345 -6 40 -44 67 -104 75 -23 2 -61 10 -84 16 -25 7 -58 8 -79 4 -48
-10 -63 -7 -83 19 -10 12 -18 18 -18 12z m158 -405 c19 -29 27 -50 20 -50 -19
1 -50 48 -42 63 4 6 4 9 -1 5 -9 -9 -35 9 -35 23 0 24 28 3 58 -41z m84 -64
c7 4 8 2 4 -5 -9 -14 -36 3 -36 23 0 6 5 3 11 -7 6 -9 15 -14 21 -11z"/>
<path d="M1485 2099 c-4 -6 -5 -12 -2 -15 2 -3 7 2 10 11 7 17 1 20 -8 4z"/>
<path d="M1077 2084 c6 -15 23 -19 23 -5 0 5 -7 11 -14 14 -10 4 -13 1 -9 -9z"/>
<path d="M1570 2041 c0 -34 7 -41 34 -32 19 7 19 8 -1 28 -12 12 -19 24 -15
27 3 3 0 6 -6 6 -7 0 -12 -13 -12 -29z"/>
<path d="M1152 2055 c10 -11 48 -14 48 -4 0 5 -12 9 -27 9 -14 0 -24 -2 -21
-5z"/>
<path d="M998 2026 c-15 -11 -15 -14 -2 -28 17 -17 9 -48 -14 -48 -9 0 -26 10
-39 22 l-23 21 0 -26 c0 -15 -4 -27 -10 -27 -18 0 -10 -18 11 -23 31 -8 22
-52 -11 -53 -14 -1 -33 -5 -44 -9 -11 -5 -26 -3 -37 4 -16 9 -19 8 -20 -6 -1
-10 -2 -32 -3 -50 -2 -41 -12 -50 -36 -35 -17 10 -18 8 -14 -33 4 -40 2 -45
-17 -45 -12 0 -23 8 -26 19 -4 16 -8 17 -18 8 -11 -10 -10 -15 2 -29 13 -15
11 -16 -25 -15 -33 2 -38 -1 -34 -16 3 -13 8 -15 18 -7 9 8 19 8 35 0 19 -11
20 -13 6 -28 -14 -13 -18 -13 -33 -1 -13 11 -18 11 -21 2 -6 -18 -32 -16 -40
3 -5 12 -7 13 -14 3 -5 -8 -3 -17 4 -21 9 -6 8 -8 -3 -8 -13 0 -13 -1 0 -10
12 -7 8 -10 -15 -10 -30 -1 -30 -1 -6 -11 16 -6 35 -6 54 1 17 5 33 8 35 5 3
-3 0 -5 -8 -5 -9 0 -10 -3 -1 -14 9 -11 7 -15 -11 -19 -12 -4 -27 -2 -34 4 -6
5 -19 7 -28 3 -9 -3 -23 -1 -31 6 -18 15 -20 -1 -2 -19 10 -11 9 -13 -4 -8 -9
3 -20 2 -25 -3 -5 -4 -26 -17 -48 -28 l-38 -21 56 4 c38 2 59 -2 67 -11 9 -11
15 -12 26 -3 9 8 17 9 24 2 14 -14 -16 -37 -33 -27 -31 20 -148 22 -208 4 -12
-3 37 -19 63 -19 15 -1 27 -6 27 -11 0 -17 -29 -23 -45 -10 -8 7 -21 10 -30 7
-8 -4 -17 -2 -21 4 -3 6 -12 8 -20 5 -7 -3 -16 -1 -19 4 -4 6 -13 10 -21 10
-13 0 -13 -2 -2 -13 7 -7 22 -16 33 -21 16 -6 17 -9 5 -16 -24 -15 -43 -12
-36 6 4 11 -1 18 -14 21 -11 3 -20 9 -20 14 0 5 -10 9 -22 9 l-23 -1 23 -18
c26 -23 28 -31 6 -31 -8 0 -12 5 -9 10 4 6 -6 10 -22 11 -15 0 -37 4 -47 8
-16 6 -17 9 -6 16 9 5 15 4 18 -3 4 -14 32 -16 32 -3 0 11 -32 21 -83 27 -26
4 -37 2 -32 -5 3 -6 16 -11 27 -11 12 0 18 -3 15 -7 -10 -10 24 -43 44 -43 10
0 21 -5 24 -10 4 -6 15 -8 25 -5 10 3 21 1 25 -5 4 -6 15 -8 25 -5 10 3 21 1
25 -5 3 -5 23 -9 44 -8 21 0 43 -2 49 -6 6 -3 13 -2 17 4 3 5 17 10 29 10 13
0 29 6 35 14 6 7 23 12 38 10 18 -2 38 7 60 27 19 16 40 29 48 29 18 0 43 49
37 73 -2 9 4 20 12 23 9 3 14 10 11 14 -3 4 3 14 13 21 15 12 16 12 5 -1 -15
-20 -2 -43 21 -34 34 13 106 93 106 117 0 27 23 52 40 42 9 -6 15 8 11 28 -1
5 3 6 8 3 8 -5 31 11 99 72 14 12 29 22 34 22 4 0 6 11 2 25 -5 20 -1 27 20
36 14 7 26 16 26 21 0 4 9 8 19 8 23 0 40 22 23 28 -7 2 -12 10 -12 18 0 15
-30 8 -42 -10 -9 -14 -28 37 -28 75 0 32 -6 35 -32 15z m20 -120 c9 -20 8 -26
-6 -32 -35 -15 -55 -9 -57 16 -3 33 2 40 29 40 14 0 27 -9 34 -24z m-154 -92
c14 -14 14 -17 1 -31 -21 -21 -45 -9 -45 22 0 29 20 33 44 9z m94 -28 c-5 -32
-42 -28 -46 5 -3 24 0 26 23 21 20 -3 25 -10 23 -26z m-147 -46 c11 0 12 -21
1 -38 -13 -20 -42 -3 -42 25 0 19 4 24 16 19 9 -3 20 -6 25 -6z m109 0 c0 -5
-5 -10 -11 -10 -5 0 -7 5 -4 10 3 6 8 10 11 10 2 0 4 -4 4 -10z m-155 -107
c16 -16 16 -17 -5 -25 -26 -10 -52 6 -43 28 7 19 28 18 48 -3z m45 -13 c0 -5
-4 -10 -10 -10 -5 0 -10 5 -10 10 0 6 5 10 10 10 6 0 10 -4 10 -10z m-330
-235 c-7 -8 -16 -15 -21 -15 -5 0 -6 7 -3 15 4 8 13 15 21 15 13 0 13 -3 3
-15z m-110 -14 c0 -5 -7 -11 -15 -15 -15 -5 -20 5 -8 17 9 10 23 9 23 -2z"/>
<path d="M1315 2021 c-9 -28 7 -48 23 -28 9 10 8 18 -2 32 -13 18 -14 18 -21
-4z"/>
<path d="M1970 2020 c0 -5 5 -10 10 -10 6 0 10 5 10 10 0 6 -4 10 -10 10 -5 0
-10 -4 -10 -10z"/>
<path d="M1096 1997 c3 -10 9 -15 12 -12 3 3 0 11 -7 18 -10 9 -11 8 -5 -6z"/>
<path d="M1849 1996 c7 -9 20 -16 27 -16 8 0 14 -4 14 -10 0 -5 13 -1 29 8 35
20 34 26 -2 13 -14 -6 -27 -6 -29 -2 -2 5 -14 12 -28 16 -22 7 -23 6 -11 -9z"/>
<path d="M1683 1975 c0 -10 6 -14 14 -10 8 3 17 5 19 5 3 0 2 5 -1 10 -10 16
-32 12 -32 -5z"/>
<path d="M1468 1955 c4 -25 17 -30 45 -19 26 10 8 44 -23 44 -24 0 -27 -3 -22
-25z"/>
<path d="M1227 1950 c-3 -11 -1 -20 4 -20 4 0 13 9 19 20 8 16 8 20 -3 20 -8
0 -17 -9 -20 -20z"/>
<path d="M860 1925 c0 -20 17 -28 23 -11 3 8 -1 17 -9 20 -8 3 -14 -1 -14 -9z"/>
<path d="M1360 1926 c0 -9 7 -12 21 -9 16 4 17 8 7 14 -19 13 -28 11 -28 -5z"/>
<path d="M1179 1903 c-13 -15 -12 -15 9 -4 23 12 28 21 13 21 -5 0 -15 -7 -22
-17z"/>
<path d="M1973 1905 c-3 -9 -3 -18 -1 -21 3 -3 8 4 11 16 6 23 -1 27 -10 5z"/>
<path d="M1637 1872 c-13 -14 -14 -21 -5 -30 7 -7 17 -12 24 -12 15 0 26 28
13 35 -5 4 -7 11 -4 16 11 16 -11 10 -28 -9z"/>
<path d="M1980 1859 c0 -5 5 -7 10 -4 6 3 10 8 10 11 0 2 -4 4 -10 4 -5 0 -10
-5 -10 -11z"/>
<path d="M1857 1853 c-4 -3 -7 -11 -7 -17 0 -6 5 -5 12 2 6 6 9 14 7 17 -3 3
-9 2 -12 -2z"/>
<path d="M1760 1789 c0 -15 18 -19 41 -10 22 8 22 8 -9 13 -18 2 -32 1 -32 -3z"/>
<path d="M1890 1787 c0 -8 7 -17 15 -21 8 -3 15 -3 15 0 0 3 -7 12 -15 20 -13
13 -15 13 -15 1z"/>
<path d="M1800 1740 c-20 -28 -21 -32 -6 -27 24 9 66 -2 66 -17 0 -7 -11 -18
-25 -24 -14 -6 -25 -18 -25 -27 0 -8 -7 -15 -15 -15 -8 0 -15 -4 -15 -10 0 -5
9 -10 20 -10 16 0 20 -6 18 -28 -1 -15 1 -32 4 -37 3 -6 3 -28 -1 -50 -5 -30
-2 -44 10 -56 21 -21 47 -30 54 -18 4 5 16 -2 26 -16 26 -32 71 -29 105 8 13
14 24 28 24 31 0 11 -66 -18 -84 -37 -19 -20 -20 -20 -27 -1 -15 39 -11 55 14
49 16 -4 29 0 42 15 19 21 19 21 -5 16 -14 -2 -33 -7 -42 -11 -19 -7 -25 12
-10 31 4 5 -2 -1 -13 -13 -12 -13 -26 -23 -33 -23 -16 0 -16 62 1 82 21 27 72
56 102 60 35 4 42 19 16 35 -16 10 -22 9 -33 -4 -11 -14 -11 -16 1 -8 9 5 12
4 8 -2 -4 -6 -18 -9 -31 -8 -18 2 -23 -1 -19 -11 3 -8 4 -14 2 -14 -2 0 -18
-4 -35 -9 -29 -8 -31 -7 -26 13 3 11 15 31 28 42 27 25 21 38 -10 22 -21 -11
-21 -11 -2 11 11 11 25 21 33 21 15 0 16 9 3 30 -8 12 -10 12 -16 -3 -3 -9
-10 -17 -16 -17 -13 0 -38 26 -38 40 0 6 -4 9 -9 6 -5 -4 -11 -1 -13 6 -2 6
-15 -4 -28 -22z"/>
<path d="M1097 1683 c-9 -15 17 -23 34 -11 11 8 11 9 -3 5 -9 -3 -18 -1 -21 6
-2 8 -5 8 -10 0z"/>
<path d="M1690 1683 c0 -17 23 -41 34 -37 23 9 15 39 -11 40 -13 1 -23 0 -23
-3z"/>
<path d="M1080 1656 c0 -2 7 -7 16 -10 8 -3 12 -2 9 4 -6 10 -25 14 -25 6z"/>
<path d="M1140 1619 c0 -6 -8 -9 -20 -6 -11 3 -18 2 -15 -3 3 -4 14 -10 25
-13 11 -3 18 -1 15 3 -3 5 0 10 7 12 9 3 9 6 0 12 -7 4 -12 2 -12 -5z"/>
<path d="M1086 1585 c4 -9 0 -15 -10 -15 -9 0 -16 -4 -16 -10 0 -17 29 -11 49
9 17 17 17 20 4 25 -24 10 -33 7 -27 -9z"/>
<path d="M1976 1521 c-4 -5 -2 -12 3 -15 5 -4 12 -2 15 3 4 5 2 12 -3 15 -5 4
-12 2 -15 -3z"/>
<path d="M943 1470 c-28 -11 -29 -30 -4 -61 20 -24 20 -24 -7 -46 -26 -22 -26
-23 -8 -38 35 -27 95 -27 200 -1 55 14 103 23 107 20 4 -2 10 0 14 5 10 16
-31 49 -77 62 -32 10 -38 14 -21 17 24 4 71 -18 98 -44 19 -19 33 -11 16 10
-20 24 -92 53 -175 70 -87 18 -111 19 -143 6z m216 -71 c60 -13 73 -26 34 -35
-15 -4 -30 -11 -33 -15 -3 -4 -34 -11 -70 -15 -36 -3 -62 -4 -59 0 4 4 29 10
55 12 27 3 50 7 52 9 2 2 -25 8 -60 13 -62 10 -61 10 32 7 76 -3 90 -2 70 7
-14 6 -63 12 -110 12 -53 0 -74 3 -55 7 47 10 90 10 144 -2z"/>
<path d="M1706 1405 c4 -8 15 -15 25 -15 12 0 16 5 13 15 -4 8 -15 15 -25 15
-12 0 -16 -5 -13 -15z"/>
<path d="M1580 1358 c0 -26 -4 -38 -8 -30 -6 8 -13 -7 -21 -42 -11 -50 -10
-59 8 -98 l21 -43 -6 35 c-3 22 -2 30 4 22 14 -21 35 91 27 149 -8 60 -25 65
-25 7z"/>
<path d="M1631 1384 c0 -11 3 -14 6 -6 3 7 2 16 -1 19 -3 4 -6 -2 -5 -13z"/>
<path d="M1798 1385 c-4 -4 -3 -15 2 -24 5 -9 11 -24 14 -33 7 -22 46 -24 46
-3 0 8 -5 15 -11 15 -13 0 -34 20 -40 38 -2 7 -7 10 -11 7z"/>
<path d="M1296 1372 c-3 -5 1 -9 9 -9 8 0 12 4 9 9 -3 4 -7 8 -9 8 -2 0 -6 -4
-9 -8z"/>
<path d="M1652 1340 c0 -19 2 -27 5 -17 2 9 2 25 0 35 -3 9 -5 1 -5 -18z"/>
<path d="M1267 1353 c-4 -3 -7 -11 -7 -17 0 -6 5 -5 12 2 6 6 9 14 7 17 -3 3
-9 2 -12 -2z"/>
<path d="M1424 1345 c4 -13 2 -14 -14 -5 -16 9 -18 8 -14 -5 4 -8 1 -15 -5
-15 -36 0 22 -122 74 -156 26 -17 37 -14 41 9 1 7 3 17 4 22 7 32 -4 67 -37
113 -37 50 -61 68 -49 37z"/>
<path d="M1889 1314 c-9 -19 -13 -34 -10 -34 10 0 34 21 51 45 14 18 14 19 -2
7 -13 -11 -17 -11 -20 1 -2 8 -10 0 -19 -19z"/>
<path d="M1657 1238 c-2 -24 -8 -52 -12 -63 -4 -12 -1 -11 8 5 18 32 31 100
19 100 -5 0 -12 -19 -15 -42z"/>
<path d="M1842 1260 c-7 -11 -8 -20 -3 -20 9 0 24 30 18 36 -1 2 -8 -6 -15
-16z"/>
<path d="M1041 1190 c-12 -17 -33 -61 -47 -97 -28 -75 -26 -122 8 -183 10 -19
17 -28 15 -20 -29 101 -30 128 -7 197 12 37 31 83 42 101 25 40 19 42 -11 2z"/>
<path d="M1370 1180 c6 -11 15 -18 21 -15 5 4 9 0 9 -7 1 -31 36 -83 55 -83
26 0 47 -14 38 -28 -3 -5 -1 -7 5 -3 6 3 13 2 17 -4 9 -14 31 -12 47 4 8 8 23
16 34 19 10 3 -5 5 -34 4 -28 0 -54 2 -57 5 -4 4 -12 39 -14 63 -1 6 -6 3 -11
-5 -8 -13 -10 -13 -10 1 0 9 -13 22 -30 29 -16 7 -30 17 -30 22 0 5 -4 7 -9 3
-5 -3 -12 -1 -16 5 -12 20 -26 10 -15 -10z"/>
<path d="M873 1125 c0 -22 2 -30 4 -17 2 12 2 30 0 40 -3 9 -5 -1 -4 -23z"/>
<path d="M1640 1126 c13 -16 12 -20 -3 -31 -9 -7 -17 -19 -17 -27 0 -12 7 -14
32 -9 42 9 43 33 4 62 -22 16 -27 17 -16 5z"/>
<path d="M1905 1112 c-15 -12 -31 -19 -37 -16 -6 4 -8 2 -5 -3 9 -14 81 6 103
29 15 15 14 16 -9 15 -14 -1 -38 -12 -52 -25z"/>
<path d="M1966 1044 c-11 -7 -17 -16 -15 -19 3 -3 14 2 25 9 10 8 17 17 14 19
-3 3 -14 -1 -24 -9z"/>
<path d="M2106 1034 c-3 -9 -6 -24 -6 -34 0 -10 -9 -21 -19 -25 -11 -3 -25
-13 -33 -22 -12 -15 -10 -15 19 0 30 16 33 16 67 -6 19 -12 35 -30 36 -40 1
-50 63 -117 108 -117 26 0 26 0 -12 39 -21 22 -35 44 -31 50 3 6 3 11 -2 10
-19 -3 -21 3 -13 32 7 23 6 35 -5 46 -20 19 -19 31 3 36 9 2 3 2 -15 0 -17 -2
-34 1 -38 6 -3 6 -13 8 -23 5 -13 -5 -14 -4 -3 4 11 8 10 12 -7 21 -16 8 -21
7 -26 -5z"/>
<path d="M2179 1033 c-13 -16 -12 -17 4 -4 9 7 17 15 17 17 0 8 -8 3 -21 -13z"/>
<path d="M450 1028 c40 -11 85 -42 149 -102 31 -29 39 -34 28 -16 -8 14 -20
42 -26 62 -7 20 -19 42 -28 50 -12 9 -15 9 -9 1 10 -18 -33 -17 -77 2 -20 8
-44 15 -54 14 -10 0 -2 -5 17 -11z m136 -43 c12 -30 -2 -35 -25 -11 l-24 26
22 0 c12 0 24 -7 27 -15z"/>
<path d="M1621 1028 c-1 -9 -6 -18 -12 -20 -6 -2 -1 -12 10 -22 21 -19 21 -19
20 0 0 10 -4 28 -9 39 -7 16 -9 17 -9 3z"/>
<path d="M1925 1020 c3 -5 8 -10 11 -10 2 0 4 5 4 10 0 6 -5 10 -11 10 -5 0
-7 -4 -4 -10z"/>
<path d="M1581 994 c0 -11 3 -14 6 -6 3 7 2 16 -1 19 -3 4 -6 -2 -5 -13z"/>
<path d="M1915 988 c2 -12 -3 -18 -16 -18 -10 0 -19 -5 -19 -11 0 -5 5 -7 12
-3 6 4 16 0 22 -8 6 -8 22 -21 36 -28 14 -7 22 -9 18 -5 -5 5 1 14 12 22 11 8
20 24 20 36 -1 20 -2 20 -11 4 -6 -9 -15 -15 -21 -11 -7 4 -7 9 0 13 6 4 4 11
-4 19 -12 10 -14 10 -14 -3 0 -18 -27 -20 -33 -2 -2 6 -3 4 -2 -5z"/>
<path d="M1401 974 c0 -11 3 -14 6 -6 3 7 2 16 -1 19 -3 4 -6 -2 -5 -13z"/>
<path d="M1429 963 c-13 -16 -12 -17 4 -4 16 13 21 21 13 21 -2 0 -10 -8 -17
-17z"/>
<path d="M1788 973 c6 -2 12 -11 12 -20 0 -20 24 -11 28 10 3 13 -4 17 -25 16
-15 0 -22 -3 -15 -6z"/>
<path d="M420 966 c0 -2 9 -6 20 -9 11 -3 18 -1 14 4 -5 9 -34 13 -34 5z"/>
<path d="M700 948 c0 -15 5 -30 10 -33 13 -8 13 25 0 45 -8 12 -10 9 -10 -12z"/>
<path d="M1708 943 c7 -3 16 -2 19 1 4 3 -2 6 -13 5 -11 0 -14 -3 -6 -6z"/>
<path d="M1396 925 c-3 -8 -14 -15 -25 -15 -12 0 -20 -9 -23 -25 -3 -14 -1
-25 3 -25 5 0 6 -8 3 -17 -4 -11 -2 -14 3 -8 4 6 22 18 38 27 19 11 29 24 27
35 -2 10 -4 24 -4 31 -2 17 -15 15 -22 -3z"/>
<path d="M1645 926 c-17 -7 -37 -21 -45 -32 -14 -18 -14 -18 5 -2 11 9 36 23
55 31 19 9 31 16 25 16 -5 0 -24 -6 -40 -13z"/>
<path d="M566 909 c8 -13 44 -31 44 -22 0 4 -11 13 -25 20 -14 6 -23 7 -19 2z"/>
<path d="M2240 915 c0 -4 25 -36 56 -71 45 -51 62 -64 86 -64 26 0 28 2 18 20
-10 19 -9 20 8 9 17 -10 23 -9 38 5 14 15 15 19 3 27 -8 5 -25 9 -39 9 -21 0
-52 13 -162 68 -5 2 -8 1 -8 -3z"/>
<path d="M1836 901 c-4 -7 -5 -15 -2 -18 9 -9 19 4 14 18 -4 11 -6 11 -12 0z"/>
<path d="M1900 885 c-13 -14 -18 -25 -11 -25 7 0 9 -5 5 -11 -4 -7 1 -10 12
-7 14 2 19 13 21 36 1 17 0 32 -1 32 -1 0 -13 -11 -26 -25z"/>
<path d="M1683 866 c7 -14 15 -20 18 -14 4 6 12 7 19 3 9 -5 11 -4 6 3 -4 7
-14 12 -22 12 -8 0 -14 5 -14 10 0 6 -4 10 -9 10 -5 0 -4 -11 2 -24z"/>
<path d="M799 853 c12 -18 24 -33 27 -33 9 0 -15 37 -33 51 -12 10 -11 5 6
-18z"/>
<path d="M1822 823 c5 -7 8 -19 5 -26 -5 -14 6 -86 19 -122 4 -11 -15 8 -41
43 -49 65 -54 69 -72 51 -8 -8 -7 -20 3 -45 17 -41 18 -68 2 -58 -7 4 -8 3 -4
-5 4 -6 11 -9 16 -6 4 3 13 -2 20 -10 9 -10 9 -15 1 -15 -6 0 -11 -3 -11 -7 0
-10 49 -33 68 -33 11 0 12 -3 3 -14 -9 -10 -9 -20 -2 -33 7 -13 6 -26 -2 -43
-20 -39 -32 -28 -35 33 -2 31 -5 57 -8 57 -3 0 -15 -5 -26 -11 -20 -11 -20
-13 -5 -24 16 -11 15 -13 -2 -29 -11 -10 -17 -25 -14 -34 4 -10 2 -13 -5 -8
-7 4 -12 2 -12 -3 0 -6 5 -11 10 -11 6 0 8 -11 4 -25 -5 -20 -1 -27 20 -36 29
-14 33 -37 15 -88 -8 -22 -15 -29 -21 -23 -6 6 -17 8 -26 5 -13 -5 -14 1 -9
39 4 28 2 49 -5 56 -9 9 -9 15 0 24 7 7 12 19 12 27 0 14 -2 14 -9 2 -7 -11
-10 -7 -14 15 -3 20 -4 14 -6 -19 0 -29 -5 -46 -11 -42 -16 10 -11 -11 6 -26
13 -10 15 -29 11 -103 -3 -50 -3 -79 0 -65 3 21 10 26 34 26 23 0 29 -5 28
-21 0 -21 -1 -21 -9 -1 -10 24 -11 1 -2 -33 6 -20 11 -15 34 38 27 62 30 80 4
33 l-15 -28 -1 25 c0 36 19 100 30 100 14 0 12 -24 -2 -39 -10 -11 -10 -13 0
-7 7 4 12 2 12 -5 0 -7 3 -10 6 -6 9 9 10 87 2 87 -5 0 -8 -5 -8 -12 0 -6 -3
-9 -6 -5 -21 20 62 157 94 154 24 -1 20 -21 -26 -107 -22 -43 -27 -56 -13 -40
12 14 33 49 47 78 14 29 30 50 35 47 5 -4 9 -1 9 4 0 28 36 46 88 45 46 -1 58
-6 95 -40 39 -36 47 -39 92 -36 28 2 54 7 59 13 6 6 6 9 -2 9 -7 0 -12 7 -12
17 0 15 1 15 18 0 21 -19 42 -22 42 -7 0 6 -5 10 -11 10 -6 0 -9 6 -6 13 3 8
1 20 -3 28 -5 8 -4 19 2 26 7 9 7 13 -1 13 -6 0 -11 -4 -11 -9 0 -16 -39 -19
-51 -4 -7 8 -21 12 -31 10 -10 -3 -18 -2 -18 1 0 7 -31 22 -73 36 -10 3 -15
10 -12 16 3 5 1 10 -6 10 -10 0 -10 3 -1 12 7 7 12 16 12 20 0 13 -54 9 -99
-7 l-42 -15 29 38 c37 48 46 72 27 72 -8 0 -15 4 -15 9 0 5 -10 11 -22 15 -25
6 -44 -12 -77 -73 l-18 -34 3 66 c4 74 -1 81 -58 82 -29 1 -35 -2 -26 -12z
m86 -205 c-6 -17 -48 -17 -48 -1 0 11 5 11 23 3 20 -10 20 -10 -3 11 -16 15
-19 20 -7 16 10 -4 17 -2 17 6 0 7 5 4 11 -6 6 -10 9 -23 7 -29z m147 -28 c3
-5 -3 -10 -14 -10 -12 0 -21 5 -21 10 0 6 6 10 14 10 8 0 18 -4 21 -10z m-268
-167 c18 -38 8 -41 -12 -4 -8 17 -12 31 -8 31 5 0 14 -12 20 -27z m20 5 c-3
-8 -6 -5 -6 6 -1 11 2 17 5 13 3 -3 4 -12 1 -19z"/>
<path d="M503 783 c15 -16 27 -33 27 -37 0 -5 7 -14 16 -21 10 -7 18 -30 19
-58 3 -42 1 -47 -18 -51 -12 -2 -43 -8 -70 -14 -45 -9 -47 -8 -41 10 5 18 4
19 -18 7 -16 -9 -19 -14 -9 -17 9 -3 2 -11 -20 -23 l-34 -18 40 6 c22 3 42 9
45 13 3 4 47 13 98 20 92 12 94 12 119 -12 l26 -23 -6 23 c-4 15 -1 22 10 22
11 0 13 3 5 13 -5 6 -12 23 -15 37 -4 21 -4 20 -6 -7 0 -18 -5 -33 -10 -33
-14 0 -81 110 -81 134 0 11 -5 28 -11 36 -8 12 -10 12 -8 -5 2 -35 0 -36 -23
-15 -13 12 -32 26 -43 32 -15 8 -13 3 8 -19z m106 -130 l22 -33 -23 0 c-21 0
-24 5 -24 35 0 19 1 33 1 32 1 -1 12 -17 24 -34z"/>
<path d="M1788 775 c5 -11 12 -27 15 -35 5 -13 6 -13 6 1 1 8 -6 24 -15 35
-15 19 -15 19 -6 -1z"/>
<path d="M1688 755 c-2 -17 -9 -30 -17 -30 -7 0 -21 -11 -30 -25 -9 -13 -11
-21 -5 -17 6 3 19 -2 29 -13 10 -11 26 -20 37 -20 15 0 18 8 18 43 -1 23 -7
53 -14 67 l-14 25 -4 -30z"/>
<path d="M470 714 c30 -14 61 -30 70 -37 13 -10 13 -10 3 4 -10 12 -10 18 -1
27 9 9 9 12 1 12 -6 0 -13 -5 -15 -11 -3 -8 -18 -4 -46 10 -22 11 -47 21 -54
21 -7 0 12 -12 42 -26z"/>
<path d="M662 735 c4 -4 0 -21 -8 -37 -9 -17 -14 -32 -12 -34 3 -2 12 12 21
31 12 26 13 36 4 41 -7 4 -9 4 -5 -1z"/>
<path d="M1095 710 c-2 -3 0 -12 6 -20 6 -11 9 -12 9 -2 0 7 4 11 9 8 5 -3 11
0 14 7 5 13 -31 19 -38 7z"/>
<path d="M1146 705 c-3 -8 -1 -15 4 -15 6 0 10 7 10 15 0 8 -2 15 -4 15 -2 0
-6 -7 -10 -15z"/>
<path d="M1040 690 c0 -15 21 -23 32 -12 6 6 2 11 -11 15 -12 3 -21 1 -21 -3z"/>
<path d="M1586 667 c-18 -15 -25 -26 -19 -30 13 -8 43 1 43 13 0 5 8 7 18 5 9
-1 12 0 5 2 -6 2 -13 11 -15 19 -2 11 -10 9 -32 -9z"/>
<path d="M1110 655 c0 -8 2 -15 4 -15 2 0 6 7 10 15 3 8 1 15 -4 15 -6 0 -10
-7 -10 -15z"/>
<path d="M1200 655 c0 -8 2 -15 4 -15 2 0 6 7 10 15 3 8 1 15 -4 15 -6 0 -10
-7 -10 -15z"/>
<path d="M1039 650 c-1 -5 -2 -19 -3 -30 0 -12 -8 -25 -16 -30 -12 -8 -11 -10
8 -11 12 -1 28 -2 35 -3 6 -1 22 -11 35 -23 27 -27 24 -26 57 -11 26 12 35 30
13 26 -7 -2 -12 3 -10 10 1 6 -3 12 -9 12 -6 0 -8 9 -4 23 6 20 5 21 -8 4 -18
-22 -43 -13 -51 19 -6 24 -45 35 -47 14z m96 -69 c3 -5 1 -12 -5 -16 -5 -3
-10 1 -10 9 0 18 6 21 15 7z"/>
<path d="M1170 644 c0 -8 5 -12 10 -9 6 3 10 10 10 16 0 5 -4 9 -10 9 -5 0
-10 -7 -10 -16z"/>
<path d="M2350 650 c20 -13 33 -13 25 0 -3 6 -14 10 -23 10 -15 0 -15 -2 -2
-10z"/>
<path d="M1200 609 c0 -5 5 -7 11 -3 7 4 10 1 7 -7 -3 -8 -14 -13 -26 -11 -19
3 -20 1 -9 -22 11 -22 13 -23 21 -8 5 9 14 20 19 23 12 8 2 39 -13 39 -5 0
-10 -5 -10 -11z"/>
<path d="M774 595 c8 -8 19 -15 25 -15 6 0 11 -5 11 -11 0 -6 7 -9 15 -6 8 4
17 1 21 -5 5 -7 2 -8 -7 -3 -12 8 -12 6 0 -8 7 -9 11 -24 7 -32 -3 -9 1 -18 9
-21 7 -3 11 -12 9 -19 -3 -8 -12 -11 -20 -8 -9 3 -13 12 -10 20 4 9 2 12 -7 7
-8 -5 -7 -2 2 9 7 9 9 17 3 17 -5 0 -17 -11 -26 -25 -13 -19 -13 -23 -2 -19 8
3 17 1 21 -5 3 -6 -1 -11 -9 -11 -9 0 -21 -9 -28 -20 -7 -11 -16 -20 -20 -20
-5 0 -8 9 -8 20 0 11 5 20 10 20 6 0 10 5 10 11 0 5 -5 7 -12 3 -11 -7 -11 -5
7 76 6 25 5 25 -5 2 -5 -13 -14 -20 -20 -17 -6 4 -7 12 -4 18 4 7 4 9 -1 5 -4
-4 -16 -3 -27 3 -16 9 -17 13 -6 27 12 15 11 16 -4 3 -13 -10 -18 -28 -18 -67
0 -57 -20 -123 -27 -91 -3 9 -9 15 -14 11 -6 -3 -7 4 -3 20 3 13 2 31 -2 38
-6 9 -10 6 -14 -12 -4 -14 -13 -24 -21 -22 -8 1 2 -11 21 -27 19 -16 38 -27
42 -25 4 2 11 -2 15 -11 6 -10 10 9 11 52 3 76 11 90 40 74 16 -9 18 -17 13
-48 -4 -21 -3 -58 2 -83 9 -43 10 -44 19 -20 20 49 31 70 36 65 3 -3 11 0 18
6 8 7 19 7 30 1 11 -6 13 -11 5 -16 -6 -4 -11 -17 -12 -29 0 -12 -3 -16 -6 -9
-8 21 -23 13 -15 -9 11 -29 24 -29 29 1 2 13 8 27 14 31 6 3 10 9 10 13 -1 3
-1 24 -1 46 0 32 3 38 16 33 10 -4 14 -14 11 -29 -2 -13 0 -24 5 -24 5 0 6 -4
3 -10 -3 -5 -1 -10 4 -10 6 0 11 10 12 23 0 13 3 16 6 8 4 -11 10 -8 25 10 17
20 19 21 13 4 -5 -16 -4 -18 6 -7 16 15 3 30 -28 35 -11 1 -28 9 -37 16 -9 7
-16 10 -16 5 0 -5 -5 -1 -11 10 -9 15 -13 16 -20 5 -7 -11 -9 -11 -9 3 0 9
-18 25 -43 37 -51 25 -64 27 -43 6z"/>
<path d="M601 595 c0 -5 6 -24 12 -42 12 -32 12 -32 23 -9 8 18 8 28 -3 42
-10 13 -13 14 -13 3 0 -12 -2 -12 -10 1 -5 8 -9 11 -9 5z m34 -24 c3 -5 1 -12
-5 -16 -5 -3 -10 1 -10 9 0 18 6 21 15 7z"/>
<path d="M2323 549 c1 -14 8 -26 15 -26 16 0 15 9 -2 32 -14 19 -14 18 -13 -6z"/>
<path d="M313 546 l-31 -11 24 -12 c13 -6 21 -7 18 -1 -3 5 2 16 12 23 22 17
20 17 -23 1z"/>
<path d="M667 553 c-4 -3 -7 -11 -7 -17 0 -6 5 -5 12 2 6 6 9 14 7 17 -3 3 -9
2 -12 -2z"/>
<path d="M580 524 c-6 -16 -17 -32 -23 -36 -8 -5 -7 -8 5 -8 9 0 21 13 27 32
14 39 5 51 -9 12z"/>
<path d="M650 513 c0 -5 7 -18 15 -29 12 -16 14 -16 15 -3 0 9 -7 22 -15 29
-8 7 -15 8 -15 3z"/>
<path d="M1652 482 c-7 -5 -10 -16 -6 -25 5 -13 2 -16 -10 -11 -9 3 -14 10
-11 14 3 5 2 11 -3 13 -4 3 -13 -6 -19 -20 -10 -21 -10 -23 3 -13 11 10 14 9
14 -4 0 -10 5 -14 10 -11 17 10 11 -18 -10 -53 -12 -19 -16 -31 -11 -28 5 3 7
-3 4 -14 -3 -11 -9 -23 -14 -26 -12 -7 -11 -24 0 -24 5 0 19 26 31 57 12 32
25 63 30 68 5 6 9 20 8 30 0 11 3 28 7 38 8 18 -2 22 -23 9z"/>
<path d="M340 466 c0 -2 7 -6 15 -10 8 -3 15 -1 15 4 0 6 -7 10 -15 10 -8 0
-15 -2 -15 -4z"/>
<path d="M549 448 c-6 -13 -8 -20 -4 -16 5 5 19 -8 33 -28 13 -19 26 -33 29
-30 3 3 -2 12 -11 21 -9 9 -16 23 -16 31 0 8 -5 14 -11 14 -6 0 -9 7 -5 15 8
23 -2 18 -15 -7z"/>
<path d="M1555 460 c-4 -7 -1 -16 6 -21 17 -10 26 8 11 23 -6 6 -12 6 -17 -2z"/>
<path d="M1985 460 c3 -5 8 -10 11 -10 2 0 4 5 4 10 0 6 -5 10 -11 10 -5 0 -7
-4 -4 -10z"/>
<path d="M1004 445 c6 -16 5 -17 -5 -8 -10 10 -16 9 -31 -4 -16 -14 -18 -14
-18 0 0 13 -4 13 -25 4 -29 -14 -38 -32 -29 -59 4 -15 9 -17 20 -7 8 6 18 9
22 5 10 -11 9 -80 -2 -87 -4 -4 -4 -15 1 -25 6 -11 9 -37 7 -59 l-3 -40 19 25
c11 14 34 60 51 102 26 63 35 75 48 68 24 -13 50 -47 43 -56 -4 -3 3 -2 15 5
12 6 25 16 29 22 5 8 1 8 -14 0 -15 -8 -23 -6 -36 8 -10 11 -14 21 -9 23 4 3
3 4 -3 2 -6 -1 -17 2 -25 7 -12 8 -12 10 1 19 8 5 11 10 6 10 -5 0 -3 6 3 13
13 17 5 27 -24 27 -11 0 -27 6 -34 13 -12 10 -13 8 -7 -8z m-14 -19 c0 -3 -4
-8 -10 -11 -5 -3 -10 -1 -10 4 0 6 5 11 10 11 6 0 10 -2 10 -4z m-64 -34 c-18
-18 -31 -10 -23 12 4 10 13 13 22 9 15 -5 15 -7 1 -21z m104 5 c0 -5 -7 -6
-15 -3 -9 3 -18 -1 -21 -9 -4 -8 -13 -15 -21 -15 -8 0 -11 -4 -8 -10 3 -5 4
-10 1 -10 -3 0 -10 10 -17 21 -8 15 -8 19 0 15 6 -4 11 -3 11 3 0 6 6 8 14 5
8 -3 16 -1 20 4 7 12 36 11 36 -1z m-10 -21 c0 -13 -29 -56 -33 -49 -7 12 11
53 23 53 5 0 10 -2 10 -4z m-47 -106 c-3 -12 -8 -19 -11 -16 -5 6 5 36 12 36
2 0 2 -9 -1 -20z"/>
<path d="M1508 453 c7 -3 16 -2 19 1 4 3 -2 6 -13 5 -11 0 -14 -3 -6 -6z"/>
<path d="M2040 447 c-17 -14 -26 -42 -10 -32 9 6 34 45 28 45 -2 0 -10 -6 -18
-13z"/>
<path d="M269 416 c13 -16 51 -41 51 -33 0 2 -15 14 -32 27 -21 15 -28 17 -19
6z"/>
<path d="M1080 415 c-7 -8 -11 -15 -9 -16 31 -6 35 -5 35 12 0 23 -9 24 -26 4z"/>
<path d="M1976 421 c-4 -5 3 -7 14 -4 23 6 26 13 6 13 -8 0 -17 -4 -20 -9z"/>
<path d="M800 396 c0 -22 3 -27 11 -19 8 8 8 16 0 30 -9 16 -10 14 -11 -11z"/>
<path d="M1160 414 c0 -5 5 -15 12 -22 12 -12 10 -13 -12 -16 -5 0 -10 -5 -9
-11 1 -5 5 -9 10 -7 5 1 9 -3 9 -9 0 -5 4 -8 9 -5 5 4 12 0 14 -6 4 -9 6 -8 6
3 1 8 -4 20 -11 27 -9 9 -6 14 13 21 21 9 22 10 4 10 -12 1 -26 6 -33 13 -7 7
-12 8 -12 2z"/>
<path d="M1559 378 c3 -40 3 -42 -15 -28 -18 14 -18 14 -3 -5 19 -24 31 -67
31 -115 l-1 -35 15 34 c14 31 14 35 0 43 -21 12 -20 27 2 45 16 14 16 14 0 9
-15 -4 -18 1 -18 34 0 22 5 40 11 40 5 0 7 5 4 10 -3 6 -12 10 -18 10 -9 0
-11 -14 -8 -42z"/>
<path d="M1836 403 c-6 -14 -5 -15 5 -6 7 7 10 15 7 18 -3 3 -9 -2 -12 -12z"/>
<path d="M1942 394 c-7 -15 -17 -22 -24 -18 -7 5 -8 3 -3 -6 4 -7 2 -16 -6
-21 -9 -5 -10 -9 -2 -9 12 0 58 68 51 76 -3 2 -10 -7 -16 -22z"/>
<path d="M2065 385 c-22 -14 -35 -25 -28 -25 7 0 29 11 49 25 47 32 31 32 -21
0z"/>
<path d="M1486 369 c3 -44 14 -49 14 -6 0 21 -4 37 -8 37 -5 0 -7 -14 -6 -31z"/>
<path d="M2453 373 c-9 -3 -8 -11 3 -29 9 -13 14 -30 11 -38 -3 -8 1 -22 9
-33 14 -16 15 -13 9 37 -7 58 -13 70 -32 63z"/>
<path d="M2134 343 c6 -17 3 -20 -18 -16 -13 3 -32 0 -43 -7 -16 -10 -15 -11
9 -6 53 12 60 -1 27 -53 -16 -27 -29 -52 -29 -57 0 -15 50 49 67 86 l15 34 13
-24 c12 -22 14 -22 12 -5 0 11 -14 31 -30 44 -27 23 -29 23 -23 4z"/>
<path d="M447 335 c-4 -8 -2 -17 3 -20 6 -4 10 3 10 14 0 25 -6 27 -13 6z"/>
<path d="M847 343 c-10 -9 -9 -23 2 -23 5 0 11 7 15 15 5 15 -5 20 -17 8z"/>
<path d="M909 331 c6 -10 7 -22 3 -26 -4 -5 -1 -5 6 -1 9 5 9 12 2 27 -6 10
-13 19 -16 19 -2 0 0 -8 5 -19z"/>
<path d="M795 330 c-3 -5 1 -10 9 -10 8 0 18 5 21 10 3 6 -1 10 -9 10 -8 0
-18 -4 -21 -10z"/>
<path d="M420 317 c0 -7 81 -69 86 -65 2 3 -16 19 -41 37 -25 18 -45 30 -45
28z"/>
<path d="M1336 289 c-15 -16 -31 -27 -35 -24 -4 2 -8 -2 -8 -10 0 -13 3 -13
17 0 9 8 22 15 28 15 7 0 12 7 12 16 0 8 4 13 9 9 5 -3 12 -1 15 4 15 24 -13
17 -38 -10z"/>
<path d="M1503 280 c0 -25 2 -35 4 -22 2 12 2 32 0 45 -2 12 -4 2 -4 -23z"/>
<path d="M641 293 c17 -4 28 -41 30 -92 l0 -26 10 25 c6 14 8 37 5 53 -6 32 0
34 28 10 20 -17 20 -17 6 0 -9 13 -10 21 -3 25 6 4 -12 7 -40 8 -29 0 -45 -1
-36 -3z"/>
<path d="M1077 293 c-4 -3 -7 -11 -7 -17 0 -6 5 -5 12 2 6 6 9 14 7 17 -3 3
-9 2 -12 -2z"/>
<path d="M1276 292 c-2 -4 4 -8 15 -8 10 0 19 4 19 8 0 4 -6 8 -14 8 -8 0 -17
-4 -20 -8z"/>
<path d="M1416 284 c-3 -8 -13 -11 -23 -8 -16 5 -16 4 1 -6 15 -10 22 -9 38 7
15 16 16 20 4 20 -8 0 -17 -6 -20 -13z"/>
<path d="M612 250 c-12 -12 -22 -23 -22 -26 0 -10 38 16 44 31 7 20 4 19 -22
-5z"/>
<path d="M1233 253 c1 -24 17 -33 17 -10 1 6 7 -1 15 -18 16 -35 20 -28 5 10
-5 14 -14 24 -19 21 -5 -4 -11 0 -14 6 -3 7 -4 3 -4 -9z"/>
<path d="M1326 243 c-6 -14 -5 -15 5 -6 7 7 10 15 7 18 -3 3 -9 -2 -12 -12z"/>
<path d="M1380 230 c-6 -11 -8 -20 -6 -20 3 0 10 9 16 20 6 11 8 20 6 20 -3 0
-10 -9 -16 -20z"/>
<path d="M525 220 c10 -11 20 -20 23 -20 3 0 -3 9 -13 20 -10 11 -20 20 -23
20 -3 0 3 -9 13 -20z"/>
<path d="M766 223 c-6 -14 -5 -15 5 -6 7 7 10 15 7 18 -3 3 -9 -2 -12 -12z"/>
</g>
</svg>
